<?xml version="1.0" encoding="UTF-8" standalone="no"?>
<!-- Created with Inkscape (http://www.inkscape.org/) -->

<svg
   xmlns:dc="http://purl.org/dc/elements/1.1/"
   xmlns:cc="http://creativecommons.org/ns#"
   xmlns:rdf="http://www.w3.org/1999/02/22-rdf-syntax-ns#"
   xmlns:svg="http://www.w3.org/2000/svg"
   xmlns="http://www.w3.org/2000/svg"
   xmlns:sodipodi="http://sodipodi.sourceforge.net/DTD/sodipodi-0.dtd"
   xmlns:inkscape="http://www.inkscape.org/namespaces/inkscape"
   width="754.92633"
   height="298.72867"
   viewBox="0 0 199.74092 79.038625"
   version="1.1"
   id="svg8"
   inkscape:version="0.92.1 r15371"
   sodipodi:docname="redhouse-logo.svg">
  <defs
     id="defs2">
    <inkscape:perspective
       sodipodi:type="inkscape:persp3d"
       inkscape:vp_x="0 : 148.49999 : 1"
       inkscape:vp_y="0 : 999.99996 : 0"
       inkscape:vp_z="209.99999 : 148.49999 : 1"
       inkscape:persp3d-origin="105 : 98.999995 : 1"
       id="perspective68" />
  </defs>
  <sodipodi:namedview
     id="base"
     pagecolor="#ffffff"
     bordercolor="#666666"
     borderopacity="1.0"
     inkscape:pageopacity="0.0"
     inkscape:pageshadow="2"
     inkscape:zoom="0.45254834"
     inkscape:cx="511.38041"
     inkscape:cy="94.657901"
     inkscape:document-units="mm"
     inkscape:current-layer="layer1"
     showgrid="false"
     inkscape:window-width="1280"
     inkscape:window-height="736"
     inkscape:window-x="0"
     inkscape:window-y="27"
     inkscape:window-maximized="1"
     inkscape:snap-page="true"
     fit-margin-top="10"
     units="px"
     fit-margin-left="10"
     fit-margin-right="10"
     fit-margin-bottom="4" />
  <metadata
     id="metadata5">
    <rdf:RDF>
      <cc:Work
         rdf:about="">
        <dc:format>image/svg+xml</dc:format>
        <dc:type
           rdf:resource="http://purl.org/dc/dcmitype/StillImage" />
        <dc:title></dc:title>
      </cc:Work>
    </rdf:RDF>
  </metadata>
  <g
     inkscape:label="Layer 1"
     inkscape:groupmode="layer"
     id="layer1"
     transform="translate(95.408997,-207.98831)">
    <flowRoot
       xml:space="preserve"
       id="flowRoot18"
       style="font-style:normal;font-variant:normal;font-weight:bold;font-stretch:normal;font-size:40px;line-height:1.25;font-family:Purisa;-inkscape-font-specification:'Purisa Bold';letter-spacing:0px;word-spacing:0px;fill:#000000;fill-opacity:1;stroke:none"><flowRegion
         id="flowRegion20"
         style="font-style:normal;font-variant:normal;font-weight:bold;font-stretch:normal;font-family:Purisa;-inkscape-font-specification:'Purisa Bold'"><rect
           id="rect22"
           width="640"
           height="208.57143"
           x="51.42857"
           y="473.94824"
           style="font-style:normal;font-variant:normal;font-weight:bold;font-stretch:normal;font-family:Purisa;-inkscape-font-specification:'Purisa Bold'" /></flowRegion><flowPara
         id="flowPara24"></flowPara></flowRoot>    <g
       id="g4089"
       transform="matrix(1.5567255,0,0,1.5567255,-56.611243,-159.20603)">
      <text
         id="text28"
         y="284.62057"
         x="-25.397312"
         style="font-style:normal;font-variant:normal;font-weight:bold;font-stretch:normal;font-size:21.74258041px;line-height:1.25;font-family:Purisa;-inkscape-font-specification:'Purisa Bold';letter-spacing:0px;word-spacing:0px;fill:#000000;fill-opacity:1;stroke:none;stroke-width:0.25479585"
         xml:space="preserve"><tspan
           style="font-style:normal;font-variant:normal;font-weight:bold;font-stretch:normal;font-size:21.74258041px;font-family:Purisa;-inkscape-font-specification:'Purisa Bold';stroke-width:0.25479585"
           y="284.62057"
           x="-25.397312"
           id="tspan26"
           sodipodi:role="line">redhouse</tspan></text>
      <path
         inkscape:connector-curvature="0"
         id="path30"
         d="m -22.394417,284.37552 c -0.138319,-0.53085 -0.383881,-2.97422 -0.545689,-5.42971 -0.305913,-4.64231 -0.153861,-5.95947 0.687951,-5.95947 0.453257,0 0.487333,0.11732 0.872758,3.00467 l 0.315193,2.36121 1.832782,-1.88709 c 1.866912,-1.92223 3.078268,-2.56444 4.133423,-2.19135 0.840342,0.29713 0.739675,0.71883 -0.297968,1.2482 -1.082952,0.55248 -2.99418,2.48353 -3.858904,3.89893 -0.3027,0.49546 -0.801106,1.88532 -1.107572,3.08859 -0.306466,1.20326 -0.67736,2.33253 -0.824209,2.50948 -0.485121,0.58456 -0.952697,0.33545 -1.207765,-0.64346 z"
         style="fill:#008000;stroke-width:0.25738269" />
      <path
         inkscape:connector-curvature="0"
         id="path32"
         d="m -7.1058809,284.5846 c -3.2301721,-0.78358 -5.1532891,-4.12131 -4.2672391,-7.40616 0.349758,-1.29666 2.3895822,-3.51054 3.7634338,-4.08458 1.1934562,-0.49866 3.5570522,-0.25585 4.8832875,0.50164 1.91328508,1.09279 2.48052691,3.31396 1.0166508,3.98095 -0.8895892,0.40533 -5.0664985,1.06998 -6.7322009,1.07127 -0.7348389,5.1e-4 -1.4059992,0.11419 -1.4914705,0.25248 -0.2869767,0.46434 0.3674335,2.21173 1.0861005,2.9001 1.0157946,0.97297 2.5232994,1.54762 3.505433,1.33625 1.1977495,-0.25777 1.9067088,-0.67593 3.8567889,-2.27485 0.96802295,-0.79371 1.85477114,-1.38456 1.97055293,-1.313 0.76840827,0.4749 -1.72371433,3.41568 -3.67844703,4.34067 -1.5520228,0.73443 -2.8214871,0.95998 -3.9128899,0.69523 z m 3.0859244,-7.81056 c 1.8988178,-0.38556 2.0840544,-0.86085 0.7073388,-1.81491 -0.7643544,-0.5297 -1.2967759,-0.68588 -2.3381724,-0.68588 -1.2490297,0 -1.4425242,0.088 -2.6243388,1.19345 -1.8532601,1.7335 -1.7425391,2.00995 0.7188301,1.79477 1.0970924,-0.0959 2.6884479,-0.31526 3.5363423,-0.48743 z"
         style="fill:#d40000;stroke-width:0.25738269" />
      <path
         inkscape:connector-curvature="0"
         id="path34"
         d="m 15.065331,285.27636 c -0.198901,-0.31851 -0.436931,-1.26811 -0.528959,-2.11022 -0.09203,-0.84211 -0.219144,-1.58293 -0.282487,-1.64627 -0.06334,-0.0633 -0.62722,0.35683 -1.253065,0.93371 -1.665333,1.53505 -3.1085021,2.19649 -4.7924301,2.19649 -5.7501973,0 -6.5808089,-6.9465 -1.2689038,-10.61201 1.6908024,-1.16675 2.6754483,-1.25845 4.3779839,-0.40774 0.767315,0.38341 1.754894,1.03897 2.194621,1.4568 l 0.799501,0.7597 0.165683,-1.20878 c 0.09112,-0.66483 0.165681,-3.0864 0.165681,-5.38127 0,-4.78692 0.216798,-5.79357 1.247748,-5.79363 l 0.682624,-5e-5 -0.0454,10.83252 c -0.02497,5.95788 -0.108204,10.99617 -0.184961,11.19619 -0.210362,0.5482 -0.870245,0.43693 -1.277631,-0.21544 z m -4.283116,-3.29461 c 0.637023,-0.40321 1.660737,-1.24606 2.274922,-1.87301 1.100578,-1.12345 1.111035,-1.15085 0.724464,-1.89839 -0.493354,-0.95404 -2.231268,-2.5377 -3.392663,-3.09153 -1.0918844,-0.52068 -1.5442464,-0.32086 -3.5956818,1.58833 l -1.4160764,1.31788 v 1.67827 c 0,1.95802 0.270127,2.4311 1.6763937,2.93595 1.2726162,0.45687 2.2366618,0.28687 3.7286415,-0.6575 z"
         style="fill:#d40000;stroke-width:0.25738269" />
      <path
         inkscape:connector-curvature="0"
         id="path36"
         d="m 20.994821,284.70647 c -0.406428,-0.40643 -0.441235,-0.74005 -1.098927,-10.53309 -0.423761,-6.30981 -0.349978,-7.36423 0.515312,-7.36423 0.205834,0 0.442476,0.21497 0.525868,0.47772 0.107913,0.34001 0.860428,8.43876 0.909139,9.78442 0.0018,0.0525 0.822622,-0.67723 1.823822,-1.62171 1.001197,-0.94448 2.21015,-1.90312 2.686557,-2.1303 0.799325,-0.38117 0.916824,-0.37989 1.522028,0.0167 1.099798,0.72062 1.399263,1.46175 1.584219,3.92071 0.189051,2.5134 -0.04292,6.46633 -0.41478,7.06801 -0.51761,0.83751 -0.807198,-0.33494 -1.028083,-4.16237 -0.241371,-4.18236 -0.431117,-5.55383 -0.799932,-5.78177 -0.370068,-0.22871 -2.424079,1.61834 -3.439955,3.09335 -0.804895,1.16867 -1.001649,1.74406 -1.313891,3.84241 -0.347857,2.33768 -0.718891,3.76705 -0.977845,3.76705 -0.06417,0 -0.286261,-0.16958 -0.493532,-0.37685 z"
         style="fill:#6c5d53;stroke-width:0.25738269" />
      <path
         inkscape:connector-curvature="0"
         id="path38"
         d="m 35.227205,284.24683 c -2.233222,-1.12953 -3.282451,-3.71495 -2.574533,-6.34395 0.408766,-1.51805 2.455289,-3.65545 4.458456,-4.65644 1.30709,-0.65316 1.851369,-0.77487 3.465346,-0.77487 3.433692,0 4.326357,0.85373 4.28258,4.09577 -0.02966,2.19679 -0.674319,4.20379 -1.888794,5.88032 -1.608067,2.21987 -5.241892,3.06422 -7.743055,1.79917 z m 5.430656,-1.91404 c 0.577647,-0.52187 1.335894,-1.51251 1.684995,-2.20143 0.713849,-1.40871 1.23961,-3.82994 1.020891,-4.70139 -0.35926,-1.4314 -4.232975,-1.56934 -6.141679,-0.2187 -1.711616,1.21117 -2.558958,2.45858 -2.705412,3.98275 -0.234794,2.44354 1.292177,4.05226 3.869111,4.07625 1.05461,0.01 1.365563,-0.11848 2.272094,-0.93748 z"
         style="fill:#6c5d53;stroke-width:0.25738269" />
      <path
         inkscape:connector-curvature="0"
         id="path40"
         d="m 49.532706,284.73504 c -0.894338,-0.89433 -1.278408,-3.10362 -1.290617,-7.42403 -0.01126,-3.98062 0.181924,-4.76187 1.007931,-4.07634 0.289731,0.24045 0.397041,0.82509 0.397197,2.16397 2.54e-4,2.545 0.47776,7.33334 0.78927,7.9154 0.439228,0.8207 1.248694,0.54973 2.64313,-0.88481 1.57577,-1.62108 3.010617,-4.40104 3.738923,-7.24403 0.579671,-2.26279 1.137427,-2.93496 1.771165,-2.13452 0.169707,0.21435 0.126275,1.33685 -0.130132,3.3632 -0.374741,2.96153 -0.369581,3.10489 0.196282,5.45407 0.588676,2.44387 0.567186,3.21537 -0.08956,3.21537 -0.54734,0 -0.838181,-0.48053 -1.395214,-2.3052 -0.279011,-0.91396 -0.609339,-1.68648 -0.734059,-1.71671 -0.12472,-0.0302 -0.694785,0.54154 -1.266812,1.2706 -2.220704,2.83034 -4.316749,3.72379 -5.637506,2.40303 z"
         style="fill:#6c5d53;stroke-width:0.25738269" />
      <path
         inkscape:connector-curvature="0"
         id="path42"
         d="m 65.60473,285.67738 c -1.561336,-0.26202 -2.340604,-0.66633 -2.727942,-1.41536 -0.774281,-1.4973 0.17834,-2.74045 1.064092,-1.38862 0.460385,0.70263 1.84187,1.43778 2.701885,1.43778 0.673186,0 2.307939,-1.62551 2.307939,-2.29488 0,-0.69473 -0.713069,-1.18391 -2.826942,-1.93934 -3.312594,-1.18382 -4.167047,-1.99142 -3.772047,-3.56523 0.195757,-0.77996 1.884137,-2.47234 2.897605,-2.90446 0.441546,-0.18827 1.546922,-0.41855 2.456387,-0.51172 l 1.653575,-0.16942 0.82524,0.9399 c 0.453883,0.51695 0.825243,1.05533 0.825243,1.1964 0,0.52532 -0.779354,0.52943 -1.442748,0.008 -0.872941,-0.68666 -2.019798,-0.6858 -3.322643,0.003 -3.124009,1.65037 -2.890995,2.55516 0.985377,3.82623 0.964543,0.31627 2.064853,0.84282 2.445136,1.17011 0.589078,0.50699 0.688619,0.78976 0.672483,1.91043 -0.02128,1.47741 -0.532422,2.36033 -1.908814,3.29709 -0.813767,0.55385 -1.415666,0.63902 -2.833826,0.40102 z"
         style="fill:#6c5d53;stroke-width:0.25738269" />
      <path
         inkscape:connector-curvature="0"
         id="path44"
         d="m 78.01833,284.57368 c -1.335866,-0.31679 -2.763426,-1.46636 -3.498811,-2.8175 -0.548848,-1.00842 -0.678544,-1.58934 -0.678544,-3.03929 0,-1.56923 0.09208,-1.91765 0.739005,-2.79638 1.818735,-2.47042 3.337309,-3.28775 5.628963,-3.02964 2.250917,0.25353 3.54724,1.11322 4.174415,2.76838 0.639535,1.68778 -1.342644,2.56428 -6.576546,2.90808 l -2.421542,0.15907 v 0.80475 c 0,1.35711 1.490505,3.03152 3.102787,3.48561 1.533856,0.43201 3.057191,-0.20118 5.508393,-2.28961 0.843237,-0.71843 1.625037,-1.30624 1.737333,-1.30624 0.475406,0 0.141805,1.03719 -0.679609,2.11296 -1.141508,1.49499 -3.045934,2.70609 -4.769147,3.03289 -0.751663,0.14255 -1.379806,0.24733 -1.395876,0.23284 -0.01608,-0.0145 -0.407936,-0.11616 -0.870821,-0.22592 z m 3.116342,-7.76549 c 1.872679,-0.36688 2.109157,-0.82519 0.932591,-1.80743 -0.741084,-0.61868 -1.09977,-0.72751 -2.397878,-0.72751 -1.482568,0 -1.562375,0.0359 -2.776587,1.25015 -1.762668,1.76267 -1.682687,1.95028 0.744572,1.74657 1.097092,-0.0921 2.67088,-0.29988 3.497302,-0.46178 z"
         style="fill:#666666;stroke-width:0.25738269" />
      <path
         inkscape:connector-curvature="0"
         id="path46"
         d="m -22.133812,285.31006 c -0.118557,-0.0692 -0.277001,-0.31353 -0.352102,-0.54302 -0.340026,-1.03904 -0.877296,-9.59031 -0.671696,-10.69083 0.121642,-0.65112 0.560276,-1.2443 0.920114,-1.2443 0.438743,0 0.612486,0.42341 0.7657,1.86602 0.136191,1.28232 0.48734,3.42106 0.576404,3.51068 0.01967,0.0198 0.278821,-0.33702 0.575862,-0.79293 1.005376,-1.54311 2.877261,-3.01379 4.217798,-3.3138 0.646346,-0.14464 0.761104,-0.13595 1.181721,0.0895 0.376234,0.20165 0.465856,0.32391 0.465856,0.63551 0,0.34923 -0.08543,0.42829 -0.900841,0.83373 -1.509599,0.75059 -3.419126,2.85131 -4.252304,4.67808 -0.166848,0.36581 -0.451032,1.36005 -0.631519,2.20941 -0.511533,2.40726 -0.759465,2.90314 -1.445765,2.89165 -0.128519,-0.002 -0.330672,-0.0605 -0.449228,-0.12969 z"
         style="fill:#aa0000;stroke-width:0.12869135" />
      <path
         inkscape:connector-curvature="0"
         id="path48"
         d="m -7.0381765,284.78387 c -1.7929322,-0.29771 -3.5900255,-1.79802 -4.2599935,-3.55647 -0.337976,-0.88708 -0.525455,-2.60428 -0.3816,-3.49523 0.188643,-1.16832 0.697086,-2.02715 1.9106252,-3.22728 1.4294787,-1.41368 2.0340991,-1.71949 3.5209832,-1.78086 2.1681421,-0.0895 3.6261859,0.38474 4.6063397,1.49825 1.28908109,1.46448 1.34100848,2.80474 0.1328735,3.42949 -0.9341096,0.48305 -3.970038,1.01355 -6.7358496,1.17703 l -1.5121242,0.0894 0.00283,0.5924 c 0.0038,0.7962 0.3544211,1.49928 1.1083926,2.22257 0.9630748,0.92389 1.5981764,1.20104 2.7522284,1.20104 0.8288892,0 1.0876344,-0.0591 1.8016794,-0.41128 0.4585816,-0.2262 1.2294078,-0.7474 1.7129441,-1.15822 1.92351513,-1.63425 2.42344499,-1.98481 2.7727268,-1.94431 0.45294806,0.0525 0.50005981,0.4629 0.13881279,1.20913 -1.29779252,2.68089 -4.81651569,4.61172 -7.57086409,4.15437 z m 2.1023257,-8.0239 c 1.0537058,-0.17851 2.0559631,-0.41637 2.227242,-0.5286 l 0.311414,-0.20405 -0.3017165,-0.32513 c -0.1659434,-0.17882 -0.6395172,-0.55574 -1.0523859,-0.83761 l -0.7506693,-0.51249 -1.1910866,0.0442 c -1.0766093,0.04 -1.2446192,0.0813 -1.7481238,0.43031 -0.5915188,0.40996 -2.0583633,2.03116 -2.0583633,2.27495 0,0.21609 2.2782648,0.0455 4.5636894,-0.34161 z"
         style="fill:#aa0000;stroke-width:0.12869135" />
      <path
         inkscape:connector-curvature="0"
         id="path50"
         d="m 15.18122,285.80329 c -0.121561,-0.0916 -0.304764,-0.36992 -0.40712,-0.61842 -0.210424,-0.51088 -0.465742,-2.17426 -0.465742,-3.0343 v -0.57194 l -1.033617,0.89319 c -1.820117,1.57282 -2.761598,2.08149 -4.3104966,2.32893 -1.842113,0.29428 -4.0316706,-0.53009 -4.9489255,-1.86327 -1.0155297,-1.47603 -1.0225824,-3.96954 -0.016842,-5.9566 0.7796447,-1.54036 2.1916775,-2.89094 3.8375518,-3.67052 1.3422977,-0.6358 2.1006237,-0.59334 3.6790863,0.20596 0.703563,0.35627 1.549944,0.91457 1.989464,1.31232 l 0.764959,0.69225 0.08376,-1.55773 c 0.04607,-0.85676 0.08627,-2.66343 0.08933,-4.01484 0.0078,-3.43741 0.17053,-5.75243 0.43247,-6.1522 0.26789,-0.40885 0.728584,-0.61606 1.369691,-0.61606 h 0.50871 l -0.001,1.25474 c -5.1e-4,0.69011 -0.06106,4.17925 -0.134586,7.75365 -0.102339,4.97533 -0.09637,7.14757 0.02545,9.26578 0.209264,3.63878 0.208556,3.66716 -0.102005,4.08486 -0.29993,0.4034 -0.996132,0.53863 -1.36022,0.2642 z m -5.1813655,-3.57015 c 1.0722935,-0.55489 2.3929455,-1.57788 3.3292675,-2.57888 l 0.598734,-0.6401 -0.193996,-0.4643 c -0.420783,-1.00707 -1.857885,-2.44103 -3.121206,-3.11437 -0.9630088,-0.51328 -1.2549692,-0.51834 -1.9768237,-0.0342 -0.7191358,0.48227 -2.1666515,1.74393 -2.6135634,2.27799 -0.4386718,0.52421 -0.6424601,1.60537 -0.5278784,2.80055 0.1044535,1.08951 0.2781835,1.39669 0.9978545,1.76434 1.328717,0.67879 2.1797964,0.67612 3.5076115,-0.011 z"
         style="fill:#aa0000;stroke-width:0.12869135" />
      <path
         transform="matrix(1.5003929,-0.00194704,-0.33543818,0.54709537,-39.629601,223.88141)"
         d="M 99.861333,25.386324 100.23931,71.877393 53.74824,72.255369 53.370264,25.7643 Z"
         inkscape:randomized="0"
         inkscape:rounded="0"
         inkscape:flatsided="true"
         sodipodi:arg2="-0.0081299022"
         sodipodi:arg1="-0.79352807"
         sodipodi:r2="23.246304"
         sodipodi:r1="32.875237"
         sodipodi:cy="48.820847"
         sodipodi:cx="76.804787"
         sodipodi:sides="4"
         id="path3789"
         style="fill:#aa0000;stroke-width:0.26458332"
         sodipodi:type="star" />
      <path
         inkscape:connector-curvature="0"
         id="path3817"
         d="m 20.767859,284.71218 c -0.143906,-0.17695 -0.33471,-1.53786 -0.424011,-3.02425 -0.0893,-1.48638 -0.214727,-3.33954 -0.278721,-4.11812 -0.064,-0.77858 -0.179152,-2.40009 -0.255907,-3.60335 -0.07676,-1.20327 -0.198692,-2.9406 -0.270968,-3.86075 -0.162853,-2.07323 0.119691,-3.19002 0.833679,-3.29523 0.290965,-0.0429 0.593509,0.0901 0.67232,0.29547 0.07881,0.20538 0.275075,2.26735 0.436137,4.58215 0.409997,5.89252 0.284033,5.59247 1.708467,4.06964 1.349733,-1.44297 3.301049,-2.82082 3.994871,-2.82082 0.256617,0 0.844826,0.33797 1.30713,0.75104 l 0.840557,0.75103 v 4.89852 c 0,3.57563 -0.08689,4.9854 -0.321729,5.22024 -0.632064,0.63207 -0.838795,-0.21721 -1.080329,-4.43815 -0.228738,-3.99729 -0.511783,-5.63838 -0.972477,-5.63838 -0.378412,0 -2.29102,1.93356 -3.130883,3.16518 -0.682254,1.0005 -0.937937,1.7779 -1.347416,4.09681 -0.27796,1.5741 -0.564995,2.95845 -0.637859,3.07635 -0.196338,0.31768 -0.77422,0.25984 -1.072861,-0.10738 z"
         style="fill:#483737;stroke-width:0.25738269" />
      <path
         inkscape:connector-curvature="0"
         id="path3819"
         d="m 35.801306,284.67257 c -1.258462,-0.46848 -2.337805,-1.49789 -2.995882,-2.85729 -1.00109,-2.06798 -0.546295,-4.45494 1.205684,-6.32794 2.270427,-2.42727 4.75686,-3.4486 7.680847,-3.15497 2.492148,0.25026 3.353786,1.34283 3.310073,4.1972 -0.05218,3.40722 -1.684723,6.53196 -4.018533,7.69158 -1.517735,0.75413 -3.828339,0.95541 -5.182189,0.45142 z m 3.744312,-1.66746 c 1.598388,-0.60926 3.47314,-3.75367 3.730087,-6.25626 0.121927,-1.18755 0.06525,-1.4343 -0.432193,-1.88156 -0.468725,-0.42144 -0.890748,-0.50591 -2.327802,-0.46596 -1.020633,0.0284 -2.091413,0.22263 -2.558393,0.46411 -1.061556,0.54895 -2.785237,2.2908 -3.132057,3.16507 -0.378398,0.95387 -0.300812,2.49235 0.171775,3.40624 0.710501,1.37395 2.993457,2.16112 4.548583,1.56836 z"
         style="fill:#483737;stroke-width:0.25738269" />
      <path
         inkscape:connector-curvature="0"
         id="path3821"
         d="m 49.872642,285.17124 c -0.615997,-0.26789 -0.887734,-0.60344 -1.086134,-1.34118 -1.096312,-4.07659 -1.033954,-10.89314 0.09965,-10.89314 0.689144,0 0.883326,0.75004 0.935766,3.61443 0.05623,3.07144 0.484871,6.76537 0.824456,7.10496 0.357792,0.35779 2.051188,-0.78944 3.072947,-2.08183 1.360541,-1.72092 2.085917,-3.22013 2.875096,-5.94228 0.714084,-2.46312 1.137863,-3.12182 1.836087,-2.85388 0.380535,0.14602 0.417483,0.40613 0.270071,1.90122 -0.493899,5.0093 -0.492793,5.07773 0.12338,7.63366 0.519564,2.15518 0.550191,2.52674 0.225209,2.7323 -0.206874,0.13085 -0.454727,0.23968 -0.550785,0.24185 -0.443941,0.01 -0.998007,-0.91458 -1.394181,-2.32653 -0.238308,-0.84933 -0.525817,-1.60142 -0.638906,-1.67131 -0.113089,-0.0699 -0.627282,0.42549 -1.14265,1.10086 -1.087216,1.42474 -2.351778,2.52461 -3.330467,2.8967 -0.87688,0.33339 -1.11675,0.32028 -2.11954,-0.11583 z"
         style="fill:#483737;stroke-width:0.25738269" />
      <path
         inkscape:connector-curvature="0"
         id="path3823"
         d="m 65.493679,285.62797 c -1.627816,-0.27318 -2.278084,-0.63682 -2.689632,-1.5041 -0.319481,-0.67326 -0.35382,-1.00983 -0.143178,-1.40341 0.361772,-0.67598 0.557157,-0.65355 1.307995,0.15015 1.484448,1.58898 2.855698,1.77271 4.048153,0.5424 1.50846,-1.55633 1.031419,-2.34509 -1.998667,-3.30465 -2.094216,-0.6632 -3.870645,-2.03704 -3.870645,-2.99345 0,-0.84695 1.569553,-2.68039 2.833585,-3.31 0.635716,-0.31665 1.876245,-0.65245 2.756736,-0.74623 1.573359,-0.16757 1.614302,-0.15582 2.380789,0.68338 1.322806,1.44829 0.7859,2.41814 -0.694163,1.25393 -0.846098,-0.66554 -1.454171,-0.64605 -3.030134,0.0971 -1.43152,0.67507 -2.591521,1.77422 -2.325948,2.20392 0.235725,0.38141 1.784053,1.13864 3.427812,1.67642 0.747587,0.24459 1.70312,0.73405 2.123408,1.08769 1.967503,1.65555 -0.0135,5.82795 -2.710506,5.70888 -0.424681,-0.0188 -1.061703,-0.0827 -1.415605,-0.14207 z"
         style="fill:#483737;stroke-width:0.25738269" />
      <path
         inkscape:connector-curvature="0"
         id="path3825"
         d="m 76.883286,284.23487 c -1.216859,-0.60233 -2.281169,-1.73597 -2.806291,-2.98909 -0.47869,-1.14231 -0.441085,-3.78613 0.06915,-4.86136 0.559114,-1.17825 2.989444,-3.36317 3.983853,-3.58158 1.026769,-0.22552 3.503515,0.0819 4.401713,0.54641 1.793419,0.92742 2.605928,3.30234 1.400099,4.09243 -0.758958,0.49729 -3.491797,1.05969 -6.276797,1.29171 -2.032555,0.16934 -2.123408,0.20384 -2.123408,0.80636 0,1.71302 1.90731,3.4351 3.804576,3.4351 1.37572,0 2.293642,-0.46175 4.423285,-2.22508 1.792906,-1.48451 2.00617,-1.58006 2.229244,-0.99874 0.19391,0.50532 -0.730548,1.96238 -1.892167,2.98229 -2.240731,1.96739 -5.078675,2.55815 -7.213257,1.50155 z m 4.180489,-7.53115 c 1.907417,-0.38647 2.057395,-0.82971 0.600424,-1.77442 -1.242654,-0.80575 -2.200231,-0.88574 -3.458087,-0.28885 -0.794221,0.37689 -2.417126,2.08646 -2.417126,2.54622 0,0.23067 3.197818,-0.0621 5.274789,-0.48295 z"
         style="fill:#483737;stroke-width:0.25738269" />
    </g>
  </g>
</svg>
